{"title":"Double.Indemnity.1944.720p.HDTV.x264-x0r","uid":6536079,"size":1711318568,"categoryP":"video","categoryS":"hd___movies","magnet":"?xt=urn:btih:ae42fc94a5b7d4d0113799bee3c80e03ea899075&amp;dn=Double.Indemnity.1944.720p.HDTV.x264-x0r&amp;tr=udp%3A%2F%2Ftracker.openbittorrent.com%3A80&amp;tr=udp%3A%2F%2Fopen.demonii.com%3A1337&amp;tr=udp%3A%2F%2Ftracker.coppersurfer.tk%3A6969&amp;tr=udp%3A%2F%2Fexodus.desync.com%3A6969","seeders":24,"leechers":3,"uploader":"insinuendo","files":5,"time":1310516494,"description":"General\nUnique ID : 35746543259410330047928601064859737863 (0x1AE488A7961456DA81133A30A89F9F07)\nComplete name : C:\\Users\\insinuendo\\Downloads\\Double.Indemnity.1944.720p.HDTV.x264-x0r.mkv\nFormat : Matroska\nFile size : 1.59 GiB\nDuration : 1h 43mn\nOverall bit rate : 2 211 Kbps\nMovie name : Double.Indemnity.1944.720p.HDTV.x264-x0r\nEncoded date : UTC 2011-07-11 22:13:03\nWriting application : mkvmerge v2.9.7 ('Tenderness') built on Jul 5 2009 13:26:28\nWriting library : libebml v0.7.8 + libmatroska v0.8.1\n\n\n &lt;a href=&quot; http://www.imdb.com/title/tt0036775/&quot; rel=&quot;nofollow&quot; target=&quot;_NEW&quot;&gt; http://www.imdb.com/title/tt0036775/&lt;/a&gt;\n\n\nVideo\nID : 1\nFormat : AVC\nFormat/Info : Advanced Video Codec\nFormat profile : &lt;a class=&quot;__cf_email__&quot; href=&quot;/cdn-cgi/l/email-protection&quot; data-cfemail=&quot;cb83a2aca38b87ffe5fa&quot;&gt;[email&amp;#160;protected]&lt;/a&gt;&lt;script cf-hash='f9e31' type=&quot;text/javascript&quot;&gt;\n/* &lt;![CDATA[ */!function(){try{var t=&quot;currentScript&quot;in document?document.currentScript:function(){for(var t=document.getElementsByTagName(&quot;script&quot;),e=t.length;e--;)if(t[e].getAttribute(&quot;cf-hash&quot;))return t[e]}();if(t&amp;&amp;t.previousSibling){var e,r,n,i,c=t.previousSibling,a=c.getAttribute(&quot;data-cfemail&quot;);if(a){for(e=&quot;&quot;,r=parseInt(a.substr(0,2),16),n=2;a.length-n;n+=2)i=parseInt(a.substr(n,2),16)^r,e+=String.fromCharCode(i);e=document.createTextNode(e),c.parentNode.replaceChild(e,c)}}}catch(u){}}();/* ]]&gt; */&lt;/script&gt;\nFormat settings, CABAC : Yes\nFormat settings, ReFrames : 5 frames\nCodec ID : V_MPEG4/ISO/AVC\nDuration : 1h 43mn\nBit rate : 1 825 Kbps\nWidth : 960 pixels\nHeight : 720 pixels\nDisplay aspect ratio : 4:3\nFrame rate mode : Variable\nFrame rate : 25.000 fps\nColor space : YUV\nChroma subsampling : 4:2:0\nBit depth : 8 bits\nScan type : Progressive\nBits/(Pixel*Frame) : 0.106\nStream size : 1.28 GiB (81%)\nWriting library : x264 core 112\nEncoding settings : cabac=1 / ref=6 / deblock=1:-2:-1 / analyse=0x3:0x133 / me=umh / subme=7 / psy=1 / psy_rd=1.00:0.00 / mixed_ref=0 / me_range=24 / chroma_me=1 / trellis=1 / 8x8dct=1 / cqm=0 / deadzone=21,11 / fast_pskip=0 / chroma_qp_offset=-2 / threads=3 / sliced_threads=0 / nr=0 / decimate=1 / interlaced=0 / constrained_intra=0 / bframes=3 / b_pyramid=1 / b_adapt=2 / b_bias=0 / direct=3 / weightb=1 / open_gop=0 / weightp=2 / keyint=240 / keyint_min=24 / scenecut=40 / intra_refresh=0 / rc_lookahead=40 / rc=2pass / mbtree=1 / bitrate=1825 / ratetol=1.0 / qcomp=0.60 / qpmin=3 / qpmax=51 / qpstep=4 / cplxblur=20.0 / qblur=0.5 / ip_ratio=1.40 / aq=1:1.00\nLanguage : English\nColor primaries : BT.709-5, BT.1361, IEC 61966-2-4, SMPTE RP177\nTransfer characteristics : BT.709-5, BT.1361\nMatrix coefficients : BT.709-5, BT.1361, IEC 61966-2-4 709, SMPTE RP177\n\nAudio\nID : 2\nFormat : AC-3\nFormat/Info : Audio Coding 3\nFormat profile : Dolby Digital\nMode extension : CM (complete main)\nCodec ID : A_AC3\nDuration : 1h 43mn\nBit rate mode : Constant\nBit rate : 384 Kbps\nChannel(s) : 2 channels\nChannel positions : Front: L R\nSampling rate : 48.0 KHz\nBit depth : 16 bits\nCompression mode : Lossy\nStream size : 283 MiB (17%)\nLanguage : English\n\nText\nID : 3\nFormat : UTF-8\nCodec ID : S_TEXT/UTF8\nCodec ID/Info : UTF-8 Plain Text\nLanguage : English\n","torrent":{"xt":"urn:btih:ae42fc94a5b7d4d0113799bee3c80e03ea899075","amp;dn":"Double.Indemnity.1944.720p.HDTV.x264-x0r","amp;tr":["udp%3A%2F%2Ftracker.openbittorrent.com%3A80","udp%3A%2F%2Fopen.demonii.com%3A1337","udp%3A%2F%2Ftracker.coppersurfer.tk%3A6969","udp%3A%2F%2Fexodus.desync.com%3A6969"],"infoHash":"ae42fc94a5b7d4d0113799bee3c80e03ea899075","infoHashBuffer":{"type":"Buffer","data":[174,66,252,148,165,183,212,208,17,55,153,190,227,200,14,3,234,137,144,117]},"announce":[],"urlList":[]}}